<svg xmlns="http://www.w3.org/2000/svg" width="566" height="239" viewBox="0 0 566 239">
<g>
<path d="M 248.00 144.00 L 255.00 144.00 L 255.00 153.95 C255.00,158.76 255.39,163.66 255.91,165.72 C255.91,165.71 255.91,165.70 255.90,165.69 C255.19,163.93 254.19,162.21 253.68,161.86 C253.16,161.51 252.80,158.23 252.88,154.57 C253.03,147.54 251.89,144.00 249.46,144.00 C248.27,144.00 248.01,145.90 248.04,154.25 L 248.00 144.00 ZM 276.86 155.93 C277.14,146.38 276.94,144.00 275.86,144.02 C272.57,144.05 271.50,145.96 271.26,152.21 C271.00,159.05 269.90,164.51 268.31,167.05 C269.60,164.78 270.00,161.02 270.00,154.28 L 270.00 144.00 L 277.21 144.00 L 276.86 155.93 ZM 262.00 170.25 C260.91,170.18 259.84,169.84 258.88,169.26 C259.84,169.80 260.92,170.15 262.00,170.25 Z" fill="rgba(0,0,0,1)"/>
<path d="M 214.00 143.73 L 223.58 144.23 C233.84,144.77 236.26,145.79 240.44,151.39 C243.35,155.29 243.36,165.68 240.44,169.68 C236.88,174.56 230.66,177.00 221.79,177.00 L 214.00 177.00 L 214.00 143.73 ZM 293.11 174.81 C292.63,173.54 289.70,166.34 286.61,158.81 C283.53,151.28 281.00,144.84 281.00,144.50 C281.00,144.16 282.64,144.02 284.64,144.19 C288.28,144.50 288.29,144.50 292.62,155.40 C295.01,161.39 297.14,166.48 297.36,166.69 C297.58,166.91 299.79,162.01 302.27,155.79 L 306.78 144.50 L 310.48 144.18 C311.89,144.06 312.88,143.82 313.31,144.20 C314.20,145.00 312.60,148.60 307.18,162.08 L 301.39 176.50 L 297.69 176.81 C294.60,177.07 293.85,176.74 293.11,174.81 ZM 256.00 175.25 C250.27,172.39 248.09,166.63 248.04,154.25 C248.01,145.90 248.27,144.00 249.46,144.00 C251.89,144.00 253.03,147.54 252.88,154.57 C252.80,158.23 253.16,161.51 253.68,161.86 C254.19,162.21 255.19,163.93 255.90,165.69 C257.98,170.83 264.37,171.87 267.88,167.64 C269.71,165.44 270.98,159.64 271.26,152.21 C271.50,145.96 272.57,144.05 275.86,144.02 C276.94,144.00 277.14,146.38 276.86,155.93 C276.55,166.07 276.19,168.28 274.43,170.68 C271.88,174.15 266.51,177.00 262.50,177.00 C260.85,177.00 257.92,176.21 256.00,175.25 ZM 229.88 169.89 C233.32,168.69 236.00,164.62 236.00,160.60 C236.00,154.30 231.35,150.00 224.55,150.00 L 221.00 150.00 L 221.00 171.00 L 223.85 171.00 C225.42,171.00 228.13,170.50 229.88,169.89 ZM 274.00 182.32 L 278.50 182.15 C280.98,182.06 283.00,182.44 283.00,182.99 C283.00,183.55 281.42,184.00 279.50,184.00 C276.67,184.00 276.00,184.38 276.00,186.00 C276.00,187.47 276.67,188.00 278.50,188.00 C279.88,188.00 281.00,188.45 281.00,189.00 C281.00,189.55 279.93,190.00 278.62,190.00 C277.10,190.00 276.05,190.70 275.73,191.94 C275.05,194.51 275.69,195.00 279.67,195.00 C281.50,195.00 283.00,195.45 283.00,196.00 C283.00,196.55 280.98,197.00 278.50,197.00 L 274.00 197.00 L 274.00 182.32 ZM 263.07 194.75 C262.59,193.51 261.26,190.36 260.13,187.75 C258.70,184.44 258.44,183.00 259.30,183.00 C259.98,183.00 261.33,185.25 262.31,188.00 C263.28,190.75 264.42,193.00 264.84,193.00 C265.26,193.00 266.41,190.75 267.40,188.00 C269.23,182.93 271.00,180.65 271.00,183.38 C271.00,185.64 265.87,197.00 264.84,197.00 C264.35,197.00 263.55,195.99 263.07,194.75 ZM 244.00 190.56 C244.00,187.02 244.48,183.82 245.08,183.45 C245.81,183.00 246.07,184.65 245.88,188.64 L 245.60 194.50 L 249.30 194.81 C254.54,195.25 253.90,197.00 248.50,197.00 L 244.00 197.00 Z" fill="rgba(2,1,1,1)"/>
<path d="M 241.99 120.25 C241.37,79.46 241.26,72.45 243.85,71.25 C244.39,71.00 245.04,71.00 245.83,71.00 C247.34,71.00 247.50,73.32 247.50,96.00 L 247.50 121.00 L 244.75 121.00 C243.24,121.00 241.99,120.66 241.99,120.25 ZM 242.45 116.72 C243.02,118.22 246.97,118.46 247.06,117.00 C247.09,116.45 247.11,107.00 247.11,96.00 C247.11,85.00 247.09,75.52 247.06,74.93 C247.02,74.34 245.99,74.00 244.75,74.18 C242.51,74.50 242.50,74.60 242.23,94.97 C242.08,106.23 242.18,116.02 242.45,116.72 Z" fill="rgba(109,9,11,1)"/>
<path d="M 216.60 109.40 C216.18,108.32 216.00,103.45 216.01,98.10 C216.04,102.04 216.22,105.40 216.56,106.31 C216.92,107.23 217.91,107.58 219.20,107.24 C220.46,106.91 220.95,106.59 221.01,103.55 C221.07,108.54 220.65,109.12 219.24,109.87 C217.62,110.74 217.08,110.64 216.60,109.40 ZM 220.09 86.40 C219.42,81.16 218.40,79.75 216.97,82.01 C218.43,79.71 219.43,81.05 220.09,86.40 Z" fill="rgba(116,7,8,1)"/>
<path d="M 256.64 130.25 C255.84,125.42 255.83,61.22 256.63,58.25 C257.36,55.54 262.42,55.04 263.39,57.58 C263.73,58.45 264.00,75.29 264.00,95.00 C264.00,114.71 263.73,131.55 263.39,132.42 C263.04,133.33 261.62,134.00 260.02,134.00 C257.61,134.00 257.18,133.53 256.64,130.25 ZM 257.94 129.33 C258.49,130.80 259.64,132.00 260.48,132.00 C261.81,132.00 262.00,127.48 262.00,94.93 L 262.00 57.86 L 259.75 58.18 L 257.50 58.50 L 257.21 92.58 C257.03,113.94 257.30,127.66 257.94,129.33 ZM 300.63 107.75 C299.71,104.32 299.92,83.68 300.89,82.15 C301.36,81.41 302.59,80.97 303.62,81.16 C305.32,81.49 305.53,82.70 305.79,93.51 C306.12,107.38 305.70,110.00 303.10,110.00 C302.01,110.00 300.98,109.06 300.63,107.75 ZM 216.56 106.31 C215.62,103.85 215.96,83.61 216.97,82.01 C218.98,78.83 220.18,82.92 220.73,94.74 C221.26,106.23 221.20,106.71 219.20,107.24 C217.91,107.58 216.92,107.23 216.56,106.31 ZM 324.63 100.75 C323.85,97.84 323.86,92.13 324.64,89.20 C325.12,87.42 325.86,86.96 327.88,87.20 C330.31,87.48 330.52,87.89 330.77,93.00 C331.16,100.78 330.45,103.00 327.60,103.00 C325.99,103.00 325.04,102.28 324.63,100.75 ZM 301.22 99.75 C301.27,104.96 301.65,107.00 302.58,107.00 C304.48,107.00 304.94,104.47 304.78,94.75 C304.68,88.41 304.29,86.00 303.36,86.00 C301.80,86.00 301.13,90.27 301.22,99.75 ZM 325.57 99.33 C325.92,100.25 326.84,101.00 327.61,101.00 C328.68,101.00 328.95,99.59 328.75,95.01 C328.60,91.36 328.06,89.01 327.36,89.01 C326.02,89.00 324.65,96.91 325.57,99.33 Z" fill="rgba(131,4,5,1)"/>
<path d="M 257.94 129.33 C257.30,127.66 257.03,113.94 257.21,92.58 L 257.50 58.50 L 259.75 58.18 L 262.00 57.86 L 262.00 94.93 C262.00,127.48 261.81,132.00 260.48,132.00 C259.64,132.00 258.49,130.80 257.94,129.33 ZM 272.70 128.37 C272.32,127.98 272.00,113.12 272.00,95.33 C272.00,63.99 272.06,63.00 273.94,63.00 C275.01,63.00 276.14,63.42 276.46,63.93 C277.25,65.21 277.76,122.88 277.01,125.99 C276.42,128.45 274.08,129.74 272.70,128.37 ZM 286.45 118.73 C286.18,118.03 286.08,107.56 286.23,95.48 L 286.50 73.50 L 289.00 73.50 L 291.50 73.50 L 291.77 95.37 C292.04,117.51 291.70,120.00 288.35,120.00 C287.57,120.00 286.72,119.43 286.45,118.73 ZM 242.45 116.72 C242.18,116.02 242.08,106.23 242.23,94.97 C242.50,74.60 242.51,74.50 244.75,74.18 C245.99,74.00 247.02,74.34 247.06,74.93 C247.09,75.52 247.11,85.00 247.11,96.00 C247.11,107.00 247.09,116.45 247.06,117.00 C246.97,118.46 243.02,118.22 242.45,116.72 ZM 230.69 114.36 C230.31,113.98 230.00,105.64 230.00,95.83 C230.00,80.97 230.24,78.00 231.44,78.00 C232.23,78.00 233.11,78.37 233.39,78.82 C233.67,79.27 233.98,86.96 234.08,95.91 C234.22,108.90 233.97,112.46 232.82,113.61 C232.03,114.40 231.07,114.74 230.69,114.36 ZM 301.22 99.75 C301.13,90.27 301.80,86.00 303.36,86.00 C304.29,86.00 304.68,88.41 304.78,94.75 C304.94,104.47 304.48,107.00 302.58,107.00 C301.65,107.00 301.27,104.96 301.22,99.75 ZM 189.70 103.37 C189.32,102.98 189.00,99.58 189.00,95.80 C189.00,90.43 189.35,88.80 190.60,88.32 C193.10,87.36 194.04,89.94 193.76,96.99 C193.56,101.92 193.13,103.55 191.95,103.77 C191.10,103.94 190.09,103.75 189.70,103.37 ZM 204.08 102.60 C203.37,101.74 203.02,98.68 203.20,94.84 C203.46,89.27 203.74,88.50 205.50,88.50 C207.27,88.50 207.53,89.26 207.79,95.09 C208.00,99.83 207.69,102.01 206.67,102.85 C205.58,103.76 205.00,103.70 204.08,102.60 ZM 313.67 101.33 C313.30,100.97 313.00,97.79 313.00,94.26 C313.00,88.20 313.12,87.88 315.25,88.18 C317.07,88.44 317.56,89.24 317.82,92.38 C318.28,98.07 315.79,103.45 313.67,101.33 ZM 325.57 99.33 C324.65,96.91 326.02,89.00 327.36,89.01 C328.06,89.01 328.60,91.36 328.75,95.01 C328.95,99.59 328.68,101.00 327.61,101.00 C326.84,101.00 325.92,100.25 325.57,99.33 Z" fill="rgba(142,3,3,1)"/>
</g>
</svg>