<svg xmlns="http://www.w3.org/2000/svg" width="486" height="1080" viewBox="0 0 486 1080">
<g>
<path d="M 194.86 654.39 C194.60,654.57 194.38,654.72 194.18,654.86 C200.12,650.38 202.63,640.74 199.62,633.72 C199.17,632.65 198.24,631.20 197.18,629.87 C198.79,631.57 200.00,633.21 200.00,634.00 C200.00,634.55 200.28,635.00 200.61,635.00 C201.92,635.00 199.73,627.38 197.84,625.35 C195.72,623.07 190.85,621.86 188.83,623.11 C188.02,623.60 188.52,624.09 190.28,624.53 C190.60,624.61 190.98,624.78 191.40,625.02 C189.86,624.49 187.77,624.32 183.94,624.15 L 179.69 623.96 C180.88,623.87 180.94,623.62 180.05,623.05 C178.54,622.10 175.12,623.37 173.77,625.40 C173.36,626.00 173.02,633.26 173.02,641.53 C173.00,658.97 173.67,660.91 179.81,661.13 L 183.50 661.26 L 180.00 662.00 C177.20,662.59 177.00,662.77 179.00,662.88 C180.38,662.96 182.18,663.47 183.00,664.00 C184.04,664.67 182.00,664.97 176.41,664.98 C168.71,665.00 168.27,664.88 167.16,662.45 C165.93,659.75 165.51,626.57 166.63,619.84 L 167.23 616.17 L 178.37 615.84 C184.49,615.65 189.65,615.84 189.83,616.25 C190.02,616.66 191.15,617.00 192.36,617.00 C194.35,617.00 198.75,619.35 200.00,621.08 C200.27,621.46 201.36,621.93 202.40,622.13 C203.49,622.34 205.71,625.05 207.62,628.50 C210.34,633.44 210.83,635.22 210.38,638.56 C209.98,641.54 210.25,642.96 211.42,643.93 C211.95,644.37 212.30,644.59 212.54,644.49 C212.47,645.00 212.38,645.50 212.28,646.01 C212.07,645.77 211.50,646.09 210.59,647.06 C209.84,647.85 208.97,650.30 208.65,652.50 L 208.11 656.17 C207.63,656.90 207.11,657.60 206.56,658.27 C207.30,657.12 207.05,656.46 205.18,656.84 C203.00,657.28 199.91,660.05 200.51,661.02 C201.47,662.56 198.30,663.82 191.75,664.52 C187.02,665.02 185.00,664.90 185.00,664.12 C185.00,663.50 185.79,662.96 186.75,662.90 C183.52,661.20 183.52,661.20 186.42,661.10 C188.02,661.04 189.04,660.71 188.68,660.35 C188.32,659.99 188.72,659.19 189.56,658.58 C190.73,657.72 189.30,657.55 183.55,657.84 C188.97,657.55 191.27,656.93 193.83,655.12 C192.83,655.88 193.26,655.84 195.39,655.61 C198.89,655.24 199.63,654.33 200.38,649.50 L 201.01 645.50 L 199.01 649.19 C197.92,651.22 196.05,653.55 194.86,654.39 ZM 233.58 665.23 C232.49,664.62 231.49,663.99 230.58,663.34 C230.70,663.19 230.78,662.92 230.85,662.56 C231.36,659.91 228.96,656.00 226.83,656.00 C225.52,656.00 224.95,656.35 225.16,657.22 C224.88,656.60 224.69,655.97 224.57,655.35 C224.34,654.16 223.43,651.80 222.55,650.10 C221.53,648.12 221.16,645.56 221.15,638.05 C221.28,645.50 221.58,646.56 222.37,644.77 C223.82,641.50 223.49,616.09 221.98,614.58 C221.77,614.37 221.60,614.82 221.46,615.90 L 221.50 613.50 L 227.25 613.20 L 229.50 613.08 C228.96,613.23 229.29,613.66 230.35,614.83 C231.51,616.11 232.00,618.49 232.00,622.83 C232.00,626.22 232.23,629.00 232.50,629.00 C232.77,629.00 233.00,625.40 233.00,621.00 C233.00,613.74 232.88,613.04 231.05,613.00 L 233.00 612.90 L 233.00 630.05 C233.00,641.13 233.31,647.00 234.57,650.60 C233.72,648.91 233.00,647.97 232.95,648.50 C232.89,649.05 232.69,650.34 232.50,651.36 C231.98,654.10 232.98,656.00 234.95,656.00 C235.91,656.00 237.40,656.79 238.28,657.75 C241.32,661.11 254.22,659.08 256.87,654.83 C257.63,653.62 257.66,653.00 256.97,653.00 C255.80,653.00 257.63,648.94 259.30,647.85 C260.60,647.00 259.32,643.68 258.01,644.50 C257.45,644.84 257.00,645.88 257.00,646.81 C256.99,647.56 256.66,648.60 256.12,649.71 C257.24,646.17 257.60,640.53 257.82,630.25 L 258.01 621.65 L 258.02 626.75 C258.03,636.00 258.35,640.01 259.00,639.00 C259.53,638.17 259.98,632.92 259.98,627.33 C260.00,614.81 260.29,613.86 263.56,615.37 C264.90,615.99 266.21,617.17 266.45,618.00 C266.84,619.29 267.33,642.04 267.08,647.31 C267.04,648.30 266.59,648.86 266.09,648.55 C265.59,648.24 264.88,649.76 264.51,651.93 C264.08,654.47 263.01,656.42 261.50,657.41 C260.21,658.25 258.88,659.80 258.55,660.85 C257.64,663.71 250.28,665.41 242.12,664.65 C235.51,664.03 233.14,664.54 235.27,666.07 C234.70,665.81 234.14,665.53 233.58,665.23 ZM 301.77 652.62 C305.52,655.47 306.38,654.63 309.63,645.00 C312.43,636.69 311.35,634.58 308.63,640.59 C309.50,638.45 310.44,636.10 311.42,633.65 C311.92,632.39 312.42,631.14 312.91,629.92 C312.27,631.82 312.66,631.83 314.04,631.72 C315.45,631.62 316.00,630.84 316.00,628.94 C316.00,627.49 316.90,625.27 318.00,624.00 C319.18,622.64 319.92,620.51 319.79,618.84 C319.63,616.78 319.22,615.89 318.66,616.17 C318.96,615.53 319.17,615.09 319.29,614.90 C320.22,613.42 321.65,613.00 325.74,613.00 C327.02,613.00 328.07,613.05 328.88,613.16 C328.27,613.55 328.00,614.62 328.00,616.54 C328.00,618.94 327.19,620.96 325.50,622.78 C324.12,624.27 322.98,626.38 322.96,627.49 C322.95,628.60 322.29,630.62 321.50,632.00 C320.71,633.38 320.05,635.91 320.04,637.64 C320.02,639.37 319.38,641.03 318.61,641.32 C317.13,641.89 313.15,652.52 312.56,657.46 C312.36,659.14 311.01,661.45 309.44,662.81 C306.98,664.92 306.06,665.11 301.26,664.51 C297.76,664.08 296.53,663.95 296.42,664.50 C295.91,663.29 295.25,661.71 294.48,659.87 C295.07,661.20 295.45,662.00 295.52,662.00 C295.67,662.00 295.54,659.86 295.22,657.25 C294.91,654.64 294.65,651.03 294.65,649.22 C294.65,647.42 294.37,646.40 294.03,646.95 C293.36,648.04 290.00,644.69 290.00,642.93 C290.00,642.35 289.52,642.18 288.93,642.54 C288.35,642.90 287.98,642.59 288.13,641.85 C288.27,641.11 287.54,637.80 286.50,634.50 C285.46,631.20 284.54,627.68 284.44,626.69 C284.34,625.69 283.31,624.20 282.13,623.38 C280.50,622.24 280.00,620.85 280.00,617.44 C280.00,614.47 279.81,613.42 278.90,613.11 C279.82,613.04 280.88,613.00 282.02,613.00 C287.68,613.00 288.11,613.17 289.07,615.75 C290.47,619.51 291.96,623.39 293.44,627.16 C290.99,621.17 289.15,617.00 288.92,617.00 C287.74,617.00 288.53,625.34 289.75,625.75 C290.44,625.98 291.00,626.76 291.00,627.49 C291.00,628.22 292.35,631.67 294.00,635.16 C295.65,638.65 297.00,642.57 297.00,643.88 C297.00,645.19 297.97,647.11 299.16,648.14 C300.35,649.17 301.03,650.30 300.68,650.66 C300.32,651.01 300.81,651.89 301.77,652.62 ZM 232.00 690.00 C232.00,685.60 231.99,681.61 231.97,679.59 C232.91,680.27 234.22,680.08 234.76,679.31 C234.95,681.02 235.00,683.99 235.00,688.93 C235.00,693.87 234.94,696.87 234.73,698.64 C234.46,698.26 234.01,698.00 233.50,698.00 C232.98,698.00 232.52,698.27 232.25,698.67 C232.06,697.03 232.00,694.33 232.00,690.00 ZM 264.06 689.00 L 264.22 677.00 L 264.23 677.00 L 264.84 682.25 C265.17,685.14 265.45,690.54 265.45,694.25 C265.45,700.73 265.55,701.00 267.88,701.00 C270.20,701.00 270.24,700.92 268.59,699.10 C268.44,698.94 268.31,698.75 268.18,698.53 L 273.75 698.80 C275.57,698.88 276.97,699.02 277.97,699.19 C277.29,699.32 276.46,699.59 275.50,700.00 C274.09,700.61 274.01,700.81 275.64,700.89 C274.59,700.96 273.36,701.00 271.95,701.00 L 263.91 701.00 ZM 226.19 699.92 C226.07,700.29 226.24,700.61 226.61,700.80 C225.36,700.94 223.54,701.00 221.05,701.00 L 216.04 701.00 C218.86,701.00 219.00,700.86 217.57,699.43 C217.21,699.07 216.92,698.78 216.69,698.46 C216.02,697.48 215.89,696.13 215.93,691.09 C215.99,694.71 216.20,697.51 216.49,697.98 C216.92,698.69 219.37,699.04 222.79,698.88 C224.58,698.79 225.99,698.83 227.00,698.98 C226.65,699.17 226.33,699.52 226.19,699.92 ZM 273.50 689.00 C273.61,689.17 273.72,689.32 273.84,689.44 C273.32,689.48 272.71,689.50 272.00,689.50 L 269.84 689.50 C270.24,688.97 269.75,687.84 268.50,687.36 C268.34,687.30 268.20,687.21 268.06,687.09 L 271.75 686.86 C273.59,686.75 274.78,686.76 275.51,686.95 C275.79,687.60 275.42,688.00 274.50,688.00 C273.61,688.00 273.16,688.45 273.50,689.00 ZM 289.86 648.59 C287.26,642.22 284.41,635.16 281.97,629.07 C284.39,634.67 286.72,639.69 287.12,639.84 C287.61,640.02 287.79,640.52 287.53,640.95 C287.32,641.30 288.31,644.49 289.86,648.59 ZM 211.83 633.28 C209.55,625.92 204.15,619.27 197.27,615.92 C204.74,619.55 209.80,625.95 211.83,633.28 ZM 267.50 690.92 L 267.50 696.76 C267.01,694.80 267.02,692.35 267.50,690.92 ZM 267.90 651.50 C266.69,656.29 263.78,660.27 259.95,663.14 C263.75,660.01 266.87,655.58 267.90,651.50 ZM 296.42 634.63 C300.36,644.29 303.65,651.65 304.01,651.30 C304.01,651.30 304.01,651.30 304.01,651.30 C303.62,651.74 300.21,644.25 296.42,634.63 ZM 251.04 667.34 C248.13,668.07 245.08,668.29 242.06,667.94 C244.91,668.11 248.18,667.90 251.04,667.34 ZM 331.00 614.15 C331.01,614.18 331.01,614.21 331.01,614.25 C331.02,614.94 326.24,627.31 320.39,641.75 L 309.75 668.00 L 309.73 668.00 L 320.38 641.75 C326.23,627.31 331.02,614.94 331.01,614.25 C331.01,614.22 331.01,614.18 331.00,614.15 ZM 194.08 666.86 C197.43,665.84 201.57,663.14 204.24,660.78 C201.55,663.33 198.32,665.33 194.68,666.67 C194.51,666.74 194.31,666.80 194.08,666.86 ZM 244.19 657.11 C246.93,657.21 249.82,656.69 251.56,655.55 C251.79,655.40 252.01,655.25 252.23,655.10 C251.80,655.48 251.39,655.79 251.00,656.00 C249.36,656.88 246.71,657.24 244.19,657.11 ZM 211.07 650.29 C210.77,651.11 210.43,651.93 210.05,652.74 C209.61,653.67 209.12,654.57 208.58,655.43 L 210.48 651.54 C210.70,651.10 210.90,650.68 211.07,650.29 ZM 297.61 667.17 C297.55,667.08 297.42,666.81 297.23,666.38 C297.69,667.06 298.26,667.47 299.28,667.70 C298.35,667.56 297.73,667.37 297.61,667.17 ZM 304.03 651.28 C304.30,650.91 305.57,648.01 307.30,643.82 C305.86,647.51 304.44,650.76 304.03,651.28 ZM 214.80 677.23 C214.54,677.33 214.31,677.65 214.12,678.24 C214.31,677.64 214.53,677.32 214.79,677.23 C214.79,677.23 214.80,677.23 214.80,677.23 ZM 228.78 699.85 C228.75,699.78 228.72,699.71 228.68,699.64 C228.72,699.69 228.75,699.75 228.77,699.81 C228.77,699.82 228.78,699.84 228.78,699.85 ZM 276.00 613.81 C276.00,613.80 276.00,613.79 276.00,613.78 C276.00,613.75 276.01,613.72 276.04,613.69 C276.02,613.73 276.01,613.77 276.00,613.81 Z" fill="rgba(0,0,0,1)"/>
<path d="M 164.45 666.73 C164.18,666.04 164.09,653.77 164.23,639.48 L 164.50 613.50 L 178.50 613.55 C191.05,613.59 192.99,613.84 197.27,615.92 C206.45,620.39 213.00,630.74 213.00,640.80 C213.00,644.74 212.82,645.10 211.42,643.93 C210.25,642.96 209.98,641.54 210.38,638.56 C210.83,635.22 210.34,633.44 207.62,628.50 C205.71,625.05 203.49,622.34 202.40,622.13 C201.36,621.93 200.27,621.46 200.00,621.08 C198.75,619.35 194.35,617.00 192.36,617.00 C191.15,617.00 190.02,616.66 189.83,616.25 C189.65,615.84 184.49,615.65 178.37,615.84 L 167.23 616.17 L 166.63 619.84 C165.51,626.57 165.93,659.75 167.16,662.45 C168.27,664.88 168.71,665.00 176.41,664.98 C182.00,664.97 184.04,664.67 183.00,664.00 C182.18,663.47 180.38,662.96 179.00,662.88 C177.00,662.77 177.20,662.59 180.00,662.00 L 183.50 661.26 L 179.81 661.13 C173.67,660.91 173.00,658.97 173.02,641.53 C173.02,633.26 173.36,626.00 173.77,625.40 C175.12,623.37 178.54,622.10 180.05,623.05 C181.13,623.74 180.80,623.97 178.75,623.98 L 176.00 624.00 L 176.00 658.22 L 183.55 657.84 C189.30,657.55 190.73,657.72 189.56,658.58 C188.72,659.19 188.32,659.99 188.68,660.35 C189.04,660.71 188.02,661.04 186.42,661.10 C183.52,661.20 183.52,661.20 186.00,662.00 C185.79,662.96 185.00,663.50 185.00,664.12 C185.00,664.90 187.02,665.02 191.75,664.52 C198.30,663.82 201.47,662.56 200.51,661.02 C199.91,660.05 203.00,657.28 205.18,656.84 C211.07,655.65 200.89,664.82 194.04,666.87 C188.64,668.49 165.08,668.38 164.45,666.73 ZM 236.22 666.66 C232.64,664.67 234.73,663.96 242.12,664.65 C250.28,665.41 257.64,663.71 258.55,660.85 C258.88,659.80 260.21,658.25 261.50,657.41 C263.01,656.42 264.08,654.47 264.51,651.93 C264.88,649.76 265.59,648.24 266.09,648.55 C266.59,648.86 267.04,648.30 267.08,647.31 C267.33,642.04 266.84,619.29 266.45,618.00 C266.21,617.17 264.90,615.99 263.56,615.37 C260.29,613.86 260.00,614.81 259.98,627.33 C259.98,632.92 259.53,638.17 259.00,639.00 C258.35,640.01 258.03,636.00 258.02,626.75 L 258.00 613.00 L 269.00 613.00 L 269.00 630.06 C269.00,639.44 268.50,649.09 267.90,651.50 C266.50,657.03 261.27,663.21 255.68,665.91 C250.71,668.32 239.95,668.73 236.22,666.66 ZM 296.96 665.92 C295.87,663.90 296.00,663.86 301.26,664.51 C306.06,665.11 306.98,664.92 309.44,662.81 C311.01,661.45 312.36,659.14 312.56,657.46 C313.15,652.52 317.13,641.89 318.61,641.32 C319.38,641.03 320.02,639.37 320.04,637.64 C320.05,635.91 320.71,633.38 321.50,632.00 C322.29,630.62 322.95,628.60 322.96,627.49 C322.98,626.38 324.12,624.27 325.50,622.78 C327.19,620.96 328.00,618.94 328.00,616.54 C328.00,614.06 328.45,613.00 329.50,613.00 C330.33,613.00 331.00,613.56 331.01,614.25 C331.02,614.94 326.23,627.31 320.38,641.75 L 309.73 668.00 L 303.90 668.00 C299.02,668.00 297.89,667.66 296.96,665.92 ZM 247.08 698.75 C246.61,697.51 244.59,692.59 242.61,687.81 C238.63,678.23 238.37,677.00 240.33,677.00 C241.08,677.00 243.30,681.14 245.42,686.50 C247.49,691.72 249.48,696.00 249.85,696.00 C250.22,696.00 251.59,692.96 252.90,689.25 C255.91,680.75 257.78,677.00 259.03,677.00 C260.60,677.00 260.23,678.48 255.76,690.03 C252.56,698.32 251.09,701.00 249.74,701.00 C248.76,701.00 247.56,699.99 247.08,698.75 ZM 301.77 652.62 C300.81,651.89 300.32,651.01 300.68,650.66 C301.03,650.30 300.35,649.17 299.16,648.14 C297.97,647.11 297.00,645.19 297.00,643.88 C297.00,642.57 295.65,638.65 294.00,635.16 C292.35,631.67 291.00,628.22 291.00,627.49 C291.00,626.76 290.44,625.98 289.75,625.75 C288.53,625.34 287.74,617.00 288.92,617.00 C289.24,617.00 292.60,624.90 296.40,634.55 C300.19,644.21 303.62,651.75 304.01,651.30 C304.40,650.86 305.99,647.21 307.54,643.20 C311.03,634.15 312.78,635.66 309.63,645.00 C306.38,654.63 305.52,655.47 301.77,652.62 ZM 291.14 651.87 C288.89,646.30 287.26,641.38 287.53,640.95 C287.79,640.52 287.61,640.02 287.12,639.84 C286.25,639.51 276.00,615.57 276.00,613.86 C276.00,613.39 276.90,613.00 278.00,613.00 C279.70,613.00 280.00,613.67 280.00,617.44 C280.00,620.85 280.50,622.24 282.13,623.38 C283.31,624.20 284.34,625.69 284.44,626.69 C284.54,627.68 285.46,631.20 286.50,634.50 C287.54,637.80 288.27,641.11 288.13,641.85 C287.98,642.59 288.35,642.90 288.93,642.54 C289.52,642.18 290.00,642.35 290.00,642.93 C290.00,644.69 293.36,648.04 294.03,646.95 C294.37,646.40 294.65,647.42 294.65,649.22 C294.65,651.03 294.91,654.64 295.22,657.25 C295.54,659.86 295.67,662.00 295.52,662.00 C295.36,662.00 293.39,657.44 291.14,651.87 ZM 265.45 694.25 C265.45,690.54 265.17,685.14 264.84,682.25 L 264.23 677.00 L 272.11 677.00 C278.46,677.00 280.00,677.29 280.00,678.50 C280.00,679.68 278.61,680.00 273.50,680.00 L 267.00 680.00 L 267.00 683.39 C267.00,685.49 267.57,687.01 268.50,687.36 C270.31,688.06 270.52,690.10 268.75,689.75 C266.69,689.34 266.56,696.86 268.59,699.10 C270.24,700.92 270.20,701.00 267.88,701.00 C265.55,701.00 265.45,700.73 265.45,694.25 ZM 238.28 657.75 C237.40,656.79 235.91,656.00 234.95,656.00 C232.98,656.00 231.98,654.10 232.50,651.36 C232.69,650.34 232.89,649.05 232.95,648.50 C233.00,647.95 233.79,649.00 234.69,650.84 C235.59,652.67 237.39,654.86 238.67,655.70 C241.38,657.48 247.94,657.64 251.00,656.00 C253.45,654.69 256.99,649.26 257.00,646.81 C257.00,645.88 257.45,644.84 258.01,644.50 C259.32,643.68 260.60,647.00 259.30,647.85 C257.63,648.94 255.80,653.00 256.97,653.00 C257.66,653.00 257.63,653.62 256.87,654.83 C254.22,659.08 241.32,661.11 238.28,657.75 ZM 213.22 689.33 C213.42,680.79 213.85,677.55 214.81,677.23 C215.84,676.89 216.10,678.74 216.00,685.65 C215.86,695.30 215.82,697.20 216.69,698.46 C216.92,698.78 217.21,699.07 217.57,699.43 C219.00,700.86 218.86,701.00 216.04,701.00 L 212.94 701.00 ZM 221.08 630.55 C221.03,619.50 221.34,613.94 221.98,614.58 C223.49,616.09 223.82,641.50 222.37,644.77 C221.36,647.05 221.15,644.71 221.08,630.55 ZM 200.00 634.00 C200.00,632.09 192.93,625.20 190.28,624.53 C188.52,624.09 188.02,623.60 188.83,623.11 C190.85,621.86 195.72,623.07 197.84,625.35 C199.73,627.38 201.92,635.00 200.61,635.00 C200.28,635.00 200.00,634.55 200.00,634.00 ZM 314.15 626.68 C315.29,623.83 316.67,620.26 317.21,618.75 C318.48,615.21 319.52,615.25 319.79,618.84 C319.92,620.51 319.18,622.64 318.00,624.00 C316.90,625.27 316.00,627.49 316.00,628.94 C316.00,630.84 315.45,631.62 314.04,631.72 C312.11,631.87 312.11,631.79 314.15,626.68 ZM 227.75 661.11 C224.53,657.29 224.30,656.00 226.83,656.00 C228.96,656.00 231.36,659.91 230.85,662.56 C230.55,664.09 230.06,663.86 227.75,661.11 ZM 194.86 654.39 C196.05,653.55 197.92,651.22 199.01,649.19 L 201.01 645.50 L 200.38 649.50 C199.63,654.33 198.89,655.24 195.39,655.61 C192.72,655.89 192.72,655.88 194.86,654.39 ZM 232.00 622.83 C232.00,618.49 231.51,616.11 230.35,614.83 C228.79,613.11 228.82,613.00 230.85,613.00 C232.87,613.00 233.00,613.47 233.00,621.00 C233.00,625.40 232.77,629.00 232.50,629.00 C232.23,629.00 232.00,626.22 232.00,622.83 ZM 208.65 652.50 C208.97,650.30 209.84,647.85 210.59,647.06 C213.01,644.49 212.97,646.46 210.48,651.54 L 208.06 656.50 ZM 231.69 679.36 C230.76,678.43 231.89,677.00 233.56,677.00 C234.35,677.00 235.00,677.67 235.00,678.50 C235.00,680.01 232.89,680.56 231.69,679.36 ZM 232.00 699.50 C232.00,698.67 232.68,698.00 233.50,698.00 C234.32,698.00 235.00,698.67 235.00,699.50 C235.00,700.33 234.32,701.00 233.50,701.00 C232.68,701.00 232.00,700.33 232.00,699.50 ZM 275.50 700.00 C278.26,698.81 280.00,698.81 280.00,700.00 C280.00,700.55 278.54,700.97 276.75,700.93 C274.03,700.87 273.82,700.72 275.50,700.00 ZM 273.50 689.00 C273.16,688.45 273.61,688.00 274.50,688.00 C275.50,688.00 275.85,687.53 275.41,686.75 C274.87,685.79 275.00,685.77 275.97,686.66 C276.66,687.30 276.92,688.31 276.55,688.91 C275.71,690.27 274.31,690.31 273.50,689.00 ZM 226.19 699.92 C226.39,699.33 226.98,698.85 227.50,698.85 C228.02,698.85 228.61,699.33 228.81,699.92 C229.01,700.52 228.42,701.00 227.50,701.00 C226.58,701.00 225.99,700.52 226.19,699.92 Z" fill="rgba(8,8,8,1)"/>
<path d="M 168.50 557.26 C167.88,556.79 167.50,546.91 167.50,531.25 L 167.50 506.00 L 171.27 506.00 L 175.03 506.00 L 174.77 531.75 L 174.50 557.50 L 172.00 557.76 C170.62,557.90 169.05,557.68 168.50,557.26 ZM 169.00 554.00 C170.33,556.48 171.64,556.55 172.89,554.21 C174.22,551.71 174.31,514.87 172.99,509.98 C171.87,505.82 170.95,505.15 169.20,507.26 C167.75,509.01 167.57,551.33 169.00,554.00 ZM 123.48 544.75 C124.16,547.51 128.05,547.80 130.57,545.29 C131.28,544.58 131.68,543.84 131.85,542.20 L 131.95 549.00 L 121.00 549.00 L 121.00 517.00 L 131.51 517.00 L 131.73 533.00 L 131.73 533.31 C131.71,532.92 131.69,532.53 131.67,532.11 C131.02,519.96 130.49,518.78 126.00,519.24 C123.51,519.50 123.50,519.56 123.21,531.00 C123.05,537.33 123.17,543.51 123.48,544.75 ZM 351.29 544.80 C356.97,547.54 357.58,546.14 357.00,531.80 L 356.50 519.50 L 349.50 519.50 L 348.69 527.50 C348.58,528.55 348.50,529.55 348.43,530.50 L 348.50 517.00 L 359.00 517.00 L 359.00 546.00 L 348.35 546.00 L 348.39 538.53 C348.73,542.01 349.69,544.02 351.29,544.80 ZM 146.25 547.34 C148.53,548.26 151.48,547.95 153.25,546.61 C153.84,546.16 154.24,545.59 154.50,544.41 L 154.50 548.50 L 148.75 548.80 L 143.00 549.10 L 143.00 516.90 L 148.75 517.20 L 154.50 517.50 L 154.50 522.10 C153.79,518.43 152.12,518.18 148.24,518.75 L 145.00 519.23 L 145.00 533.03 C145.00,543.14 145.33,546.97 146.25,547.34 ZM 284.85 546.90 C284.91,541.50 284.89,534.43 284.81,525.64 L 284.50 492.00 L 290.00 492.00 L 295.50 492.00 L 295.24 518.25 C295.18,524.72 295.10,531.81 295.02,538.30 C295.14,518.95 294.80,497.50 293.96,495.93 C292.83,493.81 289.93,493.43 286.93,495.04 C285.08,496.03 285.00,497.46 285.00,527.98 C285.00,535.48 284.95,541.85 284.85,546.90 ZM 283.64 571.25 C283.57,570.81 283.50,570.37 283.44,569.95 C283.50,570.22 283.56,570.48 283.62,570.73 C284.06,572.36 284.93,572.93 286.86,572.85 C291.39,572.66 292.66,572.04 293.85,569.43 C294.29,568.47 294.61,562.16 294.81,553.61 C294.78,555.02 294.76,556.24 294.74,557.25 C294.61,564.26 294.84,570.00 295.25,570.00 C295.66,570.00 296.00,571.12 296.00,572.50 C296.00,574.88 295.72,575.00 290.13,575.00 L 284.26 575.00 ZM 269.50 584.03 C269.48,583.98 269.46,583.93 269.43,583.89 C269.08,583.32 268.86,559.95 268.95,531.95 C269.05,497.07 268.75,480.41 268.01,479.02 C267.32,477.73 265.63,477.03 264.02,476.98 C265.14,476.89 266.20,476.48 266.50,476.00 C266.84,475.45 267.82,475.00 268.69,475.00 C269.94,475.00 270.14,475.76 269.67,478.75 C268.94,483.39 268.86,570.16 269.50,584.03 ZM 245.48 594.37 C246.95,592.90 247.07,586.92 246.80,532.63 C246.57,485.93 246.21,472.00 245.21,470.25 C244.27,468.60 243.01,468.00 240.46,468.00 C242.35,468.00 244.16,467.55 244.50,467.00 C245.73,465.01 248.00,465.99 248.00,468.50 C248.00,469.88 247.66,471.00 247.25,471.00 C246.84,471.00 246.64,498.39 246.81,531.87 C247.08,587.02 246.96,592.90 245.48,594.37 ZM 190.77 534.83 C190.92,518.18 191.24,503.90 191.49,502.30 L 191.24 531.88 C191.05,553.46 191.30,562.66 192.11,563.63 C194.00,565.91 196.33,565.35 197.20,562.58 C197.11,563.66 197.02,564.31 196.93,564.41 C196.61,564.72 195.04,565.24 193.43,565.57 L 190.50 566.15 ZM 327.17 532.67 C327.18,531.93 327.19,531.18 327.21,530.42 L 327.50 517.50 L 331.78 517.19 L 336.06 516.88 L 335.90 524.73 C335.92,519.02 335.50,519.01 333.78,519.03 C328.82,519.10 327.67,521.27 327.22,531.37 C327.20,531.82 327.18,532.26 327.17,532.67 ZM 327.45 544.73 C327.29,544.32 327.19,542.27 327.15,539.36 C327.40,541.25 328.11,541.95 329.66,543.39 C330.92,544.57 331.91,545.38 332.69,545.73 L 331.74 545.81 C329.23,546.02 327.81,545.66 327.45,544.73 ZM 265.20 589.00 C266.68,588.80 268.07,588.12 268.79,586.96 C269.20,586.31 269.46,585.58 269.55,584.97 C269.58,585.34 269.60,585.60 269.63,585.75 L 270.23 589.00 L 265.65 589.00 C265.50,589.00 265.35,589.00 265.20,589.00 ZM 335.69 535.70 L 335.50 545.50 L 334.21 545.61 C335.16,544.68 335.50,541.65 335.69,535.70 ZM 192.17 501.50 C192.70,501.20 193.47,501.07 194.24,501.18 C194.98,501.29 195.50,501.48 195.90,501.96 C195.48,501.58 194.89,501.50 194.00,501.50 L 192.17 501.50 ZM 197.24 507.23 C197.25,507.32 197.27,507.41 197.28,507.50 C197.50,509.20 197.64,513.70 197.72,519.48 C197.61,513.96 197.45,509.46 197.24,507.23 ZM 259.99 586.98 C260.40,587.75 261.12,588.30 261.99,588.64 C261.01,588.34 260.44,587.82 259.99,586.98 ZM 283.05 564.58 C283.07,563.05 283.26,561.85 283.60,561.06 C283.29,561.78 283.10,563.09 283.05,564.58 ZM 283.65 560.94 C283.77,560.69 283.91,560.49 284.06,560.34 C284.09,560.31 284.11,560.27 284.14,560.22 C284.09,560.38 284.05,560.47 284.00,560.50 C283.87,560.58 283.76,560.73 283.65,560.94 Z" fill="rgba(170,20,23,1)"/>
<path d="M 308.97 557.50 C308.96,557.22 308.93,545.89 308.92,532.32 C308.89,510.32 309.07,507.54 310.55,506.71 C311.62,506.12 313.08,506.17 314.61,506.87 L 317.00 507.96 L 317.00 531.40 C317.00,544.29 316.73,555.55 316.39,556.42 C316.00,557.43 314.56,558.00 312.39,558.00 C310.53,558.00 308.99,557.78 308.97,557.50 ZM 309.71 555.38 C310.10,555.77 311.34,555.95 312.46,555.79 C314.44,555.51 314.51,554.80 314.77,531.75 C315.02,509.36 314.93,508.00 313.22,508.00 C309.27,508.00 309.00,509.59 309.00,532.53 C309.00,544.71 309.32,554.99 309.71,555.38 ZM 259.99 586.98 C259.39,585.87 259.18,584.51 259.52,583.97 C259.84,583.44 260.07,561.87 260.04,535.28 C260.21,560.20 260.63,584.06 261.19,584.73 C262.54,586.36 266.45,586.37 267.78,584.75 C268.38,584.02 268.78,566.53 268.93,545.98 C268.94,567.36 269.14,583.42 269.43,583.89 C269.78,584.46 269.49,585.84 268.79,586.96 C267.05,589.75 261.48,589.76 259.99,586.98 ZM 283.62 570.73 C282.68,567.21 282.90,561.18 284.00,560.50 C284.63,560.11 285.00,548.17 285.00,527.98 C285.00,522.93 285.00,518.68 285.01,515.10 C285.03,519.84 285.08,525.75 285.15,533.15 C285.43,562.26 285.78,570.03 286.87,571.35 C287.44,572.03 288.03,572.49 288.64,572.74 C288.11,572.79 287.52,572.82 286.86,572.85 C284.93,572.93 284.06,572.36 283.62,570.73 ZM 329.66 543.39 C326.85,540.78 326.82,540.61 327.22,531.37 C327.67,521.27 328.82,519.10 333.78,519.03 C334.04,519.03 334.27,519.03 334.48,519.04 L 333.28 519.18 C330.82,519.46 330.42,520.02 329.82,524.00 C328.55,532.47 328.90,541.41 330.60,543.83 C331.47,545.09 332.94,545.97 333.85,545.79 C333.92,545.78 333.99,545.76 334.05,545.74 C333.17,546.35 331.80,545.39 329.66,543.39 ZM 148.74 547.86 C149.62,547.79 150.46,547.39 151.53,546.60 C153.20,545.38 153.46,543.77 153.60,533.85 C153.68,527.61 153.34,521.71 152.84,520.75 C152.24,519.60 150.75,519.00 148.46,519.00 L 146.55 519.00 L 148.24 518.75 C154.44,517.84 155.00,519.01 155.00,532.88 C155.00,543.52 154.75,545.47 153.25,546.61 C152.08,547.49 150.41,547.93 148.74,547.86 ZM 168.58 511.22 C168.75,509.00 168.95,507.56 169.20,507.26 C170.95,505.15 171.87,505.82 172.99,509.98 C174.31,514.87 174.22,551.71 172.89,554.21 C172.78,554.41 172.67,554.60 172.56,554.77 C173.65,552.33 173.89,545.83 173.73,531.15 C173.49,509.23 172.91,506.17 169.54,508.96 C169.12,509.32 168.80,509.93 168.58,511.22 ZM 268.01 479.02 C268.58,480.09 268.89,490.20 268.95,510.71 C268.84,493.58 268.53,480.00 268.01,479.02 ZM 169.00 554.00 C168.49,553.04 168.18,546.95 168.07,539.46 C168.21,547.57 168.56,553.13 169.03,554.05 C169.02,554.04 169.01,554.02 169.00,554.00 ZM 294.91 513.32 C295.27,534.35 294.90,567.14 293.85,569.43 C293.37,570.49 292.87,571.22 292.15,571.73 C292.75,571.14 293.32,570.33 293.85,569.32 C294.90,567.32 295.27,534.41 294.91,513.32 ZM 290.18 494.05 C291.86,493.96 293.25,494.60 293.96,495.93 C293.28,494.65 291.80,494.01 290.18,494.05 ZM 286.03 495.91 C286.27,495.45 286.57,495.23 286.93,495.04 C287.10,494.95 287.26,494.87 287.42,494.79 C287.14,494.94 286.86,495.11 286.60,495.31 C286.38,495.46 286.19,495.64 286.03,495.91 ZM 170.27 555.64 C169.90,555.38 169.53,554.93 169.17,554.30 C169.49,554.85 169.90,555.33 170.27,555.64 ZM 335.84 529.39 C335.82,530.26 335.80,531.21 335.78,532.24 C335.77,532.77 335.76,533.29 335.74,533.79 C335.76,533.27 335.77,532.73 335.78,532.17 L 335.84 529.39 Z" fill="rgba(198,22,26,1)"/>
<path d="M 351.29 544.80 C348.43,543.41 347.62,538.07 348.69,527.50 L 349.50 519.50 L 352.83 519.50 C351.46,520.70 351.00,524.42 351.00,531.96 C351.00,537.85 351.30,542.97 351.67,543.33 C352.69,544.36 354.47,544.13 355.80,542.80 C356.55,542.05 356.96,538.24 357.00,531.74 L 357.00 531.80 C357.58,546.14 356.97,547.54 351.29,544.80 ZM 330.60 543.83 C330.51,543.72 330.43,543.58 330.36,543.44 C331.31,544.20 332.74,544.23 333.34,543.25 C333.59,542.84 333.95,537.33 334.15,531.00 C334.48,520.05 334.40,519.50 332.50,519.50 C330.90,519.50 330.37,520.39 329.82,524.00 C329.33,527.28 329.08,532.08 329.09,536.00 C328.96,532.44 329.20,528.16 329.82,524.00 C330.42,520.02 330.82,519.46 333.28,519.18 L 336.06 518.86 L 335.78 532.17 C335.54,543.62 335.27,545.52 333.85,545.79 C332.94,545.97 331.47,545.09 330.60,543.83 ZM 355.76 519.50 L 356.50 519.50 L 356.57 521.15 C356.38,520.25 356.12,519.76 355.76,519.50 Z" fill="rgba(208,12,13,1)"/>
<path d="M 211.46 572.75 C211.19,572.06 211.09,553.95 211.24,532.50 L 211.50 493.50 L 215.18 493.19 C218.08,492.95 219.11,493.33 219.98,494.96 C221.12,497.09 221.38,563.90 220.27,570.70 C219.77,573.78 219.47,574.00 215.84,574.00 C213.64,574.00 211.73,573.45 211.46,572.75 ZM 192.11 563.63 C191.30,562.66 191.05,553.46 191.24,531.88 L 191.50 501.50 L 194.00 501.50 C196.25,501.50 196.57,502.01 197.16,506.50 C198.02,512.97 198.19,557.79 197.38,561.88 C196.70,565.24 194.15,566.09 192.11,563.63 ZM 213.70 571.37 C214.09,571.75 215.10,571.93 215.95,571.77 C217.32,571.51 217.50,567.04 217.50,533.99 L 217.50 496.50 L 213.00 495.86 L 213.00 533.26 C213.00,553.84 213.32,570.98 213.70,571.37 ZM 309.71 555.38 C309.32,554.99 309.00,544.71 309.00,532.53 C309.00,509.59 309.27,508.00 313.22,508.00 C314.93,508.00 315.02,509.36 314.77,531.75 C314.51,554.80 314.44,555.51 312.46,555.79 C311.34,555.95 310.10,555.77 309.71,555.38 ZM 169.04 554.07 C168.42,552.91 168.00,543.71 168.00,531.19 C168.00,513.54 168.24,510.04 169.54,508.96 C172.91,506.17 173.49,509.23 173.73,531.15 C173.95,551.20 173.42,556.00 171.00,556.00 C170.49,556.00 169.60,555.13 169.04,554.07 ZM 146.25 547.34 C145.33,546.97 145.00,543.11 145.00,532.92 L 145.00 519.00 L 148.46 519.00 C150.75,519.00 152.24,519.60 152.84,520.75 C153.34,521.71 153.68,527.61 153.60,533.85 C153.46,543.77 153.20,545.38 151.53,546.60 C149.56,548.05 148.40,548.21 146.25,547.34 ZM 123.48 544.75 C123.17,543.51 123.05,537.33 123.21,531.00 C123.50,519.56 123.51,519.50 126.00,519.24 C130.49,518.78 131.02,519.96 131.67,532.11 C132.21,542.12 132.07,543.79 130.57,545.29 C128.05,547.80 124.16,547.51 123.48,544.75 ZM 192.78 532.98 C193.00,554.59 193.35,561.05 194.28,560.74 C195.20,560.43 195.50,553.55 195.50,532.75 C195.50,517.58 195.19,504.86 194.82,504.48 C192.86,502.52 192.52,507.18 192.78,532.98 ZM 147.30 545.18 C147.90,545.55 149.20,545.43 150.20,544.90 C151.74,544.07 152.00,542.58 151.99,534.71 C151.97,525.87 150.73,520.86 148.50,520.61 C147.95,520.55 147.36,521.74 147.18,523.25 C147.01,524.76 146.56,526.00 146.18,526.00 C145.05,526.00 146.12,544.44 147.30,545.18 ZM 329.61 542.42 C328.83,540.39 328.95,529.81 329.82,524.00 C330.37,520.39 330.90,519.50 332.50,519.50 C334.40,519.50 334.48,520.05 334.15,531.00 C333.95,537.33 333.59,542.84 333.34,543.25 C332.54,544.57 330.23,544.05 329.61,542.42 ZM 310.83 550.82 C311.12,552.39 311.59,552.81 312.28,552.12 C313.29,551.11 313.40,512.06 312.38,511.05 C312.11,510.78 311.45,511.22 310.92,512.03 C309.98,513.44 309.90,545.90 310.83,550.82 ZM 124.36 543.49 C124.71,544.40 125.78,545.00 126.75,544.81 C128.28,544.52 128.54,543.00 128.78,532.72 C129.02,522.77 128.82,520.87 127.49,520.36 C126.62,520.02 125.66,520.01 125.35,520.31 C124.50,521.16 123.63,541.59 124.36,543.49 ZM 330.75 540.42 C331.16,540.84 331.85,537.70 332.28,533.45 C333.08,525.51 332.90,524.32 331.07,525.46 C329.87,526.20 329.59,539.25 330.75,540.42 ZM 169.00 549.50 C169.00,550.33 169.68,551.00 170.50,551.00 C171.32,551.00 172.00,550.33 172.00,549.50 C172.00,548.67 171.32,548.00 170.50,548.00 C169.68,548.00 169.00,548.67 169.00,549.50 Z" fill="rgba(231,7,7,1)"/>
<path d="M 238.25 595.34 C237.27,594.94 237.00,581.21 237.00,531.42 L 237.00 468.00 L 240.46 468.00 C243.01,468.00 244.27,468.60 245.21,470.25 C246.21,472.00 246.57,485.93 246.80,532.63 C247.07,587.00 246.94,592.91 245.48,594.38 C243.90,595.95 240.80,596.37 238.25,595.34 ZM 261.19 584.73 C260.03,583.33 259.44,481.62 260.58,478.66 C261.51,476.24 266.66,476.49 268.01,479.02 C269.47,481.75 269.25,582.96 267.78,584.75 C266.45,586.37 262.54,586.36 261.19,584.73 ZM 286.87 571.35 C285.78,570.03 285.43,562.26 285.15,533.15 C284.83,498.99 284.92,496.53 286.60,495.31 C289.20,493.40 292.77,493.71 293.96,495.93 C295.47,498.75 295.37,566.43 293.85,569.32 C291.76,573.28 289.12,574.05 286.87,571.35 ZM 213.70 571.37 C213.32,570.98 213.00,553.84 213.00,533.26 L 213.00 495.86 L 215.25 496.18 L 217.50 496.50 L 217.50 533.99 C217.50,567.04 217.32,571.51 215.95,571.77 C215.10,571.93 214.09,571.75 213.70,571.37 ZM 192.78 532.98 C192.52,507.18 192.86,502.52 194.82,504.48 C195.19,504.86 195.50,517.58 195.50,532.75 C195.50,553.55 195.20,560.43 194.28,560.74 C193.35,561.05 193.00,554.59 192.78,532.98 ZM 310.83 550.82 C309.90,545.90 309.98,513.44 310.92,512.03 C311.45,511.22 312.11,510.78 312.38,511.05 C313.40,512.06 313.29,551.11 312.28,552.12 C311.59,552.81 311.12,552.39 310.83,550.82 ZM 169.00 549.50 C169.00,548.67 169.68,548.00 170.50,548.00 C171.32,548.00 172.00,548.67 172.00,549.50 C172.00,550.33 171.32,551.00 170.50,551.00 C169.68,551.00 169.00,550.33 169.00,549.50 ZM 147.30 545.18 C146.12,544.44 145.05,526.00 146.18,526.00 C146.56,526.00 147.01,524.76 147.18,523.25 C147.36,521.74 147.95,520.55 148.50,520.61 C150.73,520.86 151.97,525.87 151.99,534.71 C152.00,542.58 151.74,544.07 150.20,544.90 C149.20,545.43 147.90,545.55 147.30,545.18 ZM 124.36 543.49 C123.63,541.59 124.50,521.16 125.35,520.31 C125.66,520.01 126.62,520.02 127.49,520.36 C128.82,520.87 129.02,522.77 128.78,532.72 C128.54,543.00 128.28,544.52 126.75,544.81 C125.78,545.00 124.71,544.40 124.36,543.49 ZM 351.67 543.33 C351.30,542.97 351.00,537.85 351.00,531.96 C351.00,520.82 352.00,518.02 355.49,519.36 C356.71,519.83 357.00,522.02 357.00,530.77 C357.00,537.86 356.59,542.01 355.80,542.80 C354.47,544.13 352.69,544.36 351.67,543.33 ZM 330.75 540.42 C329.59,539.25 329.87,526.20 331.07,525.46 C332.90,524.32 333.08,525.51 332.28,533.45 C331.85,537.70 331.16,540.84 330.75,540.42 Z" fill="rgba(241,4,3,1)"/>
</g>
</svg>