<?xml version="1.0" encoding="utf-8"?>
<!-- Generator: Adobe Illustrator 26.0.1, SVG Export Plug-In . SVG Version: 6.00 Build 0)  -->
<svg version="1.1" id="Layer_1" xmlns="http://www.w3.org/2000/svg" xmlns:xlink="http://www.w3.org/1999/xlink" x="0px" y="0px"
	 viewBox="0 0 816.87 854.17" style="enable-background:new 0 0 816.87 854.17;" xml:space="preserve">
<style type="text/css">
	.st0{fill:#FFFFFF;}
</style>
<g>
	<path class="st0" d="M341.76,704h4.4v58.05h27.47v3.66h-31.87V704z"/>
	<path class="st0" d="M396.33,704v61.72h-4.4V704H396.33z"/>
	<path class="st0" d="M433.51,765.72L413,704h4.58l10.9,33.06c2.93,8.97,5.49,16.76,7.23,23.62h0.27
		c1.83-6.96,4.67-14.93,7.88-23.62l12-33.06h4.67l-22.89,61.72H433.51z"/>
	<path class="st0" d="M505.2,735.04h-24.63v27.01h27.56v3.66h-31.96V704h30.49v3.66h-26.1v23.72h24.63V735.04z"/>
</g>
<g>
	<path class="st0" d="M206.25,531.08c12.02-1.75,26.89-3.06,42.85-3.06c27.54,0,46.35,5.68,59.9,17.05
		c14.43,11.59,23.17,29.29,23.17,54.22c0,26.45-8.96,45.91-22.95,58.59c-14.65,13.33-38.04,20.11-66.68,20.11
		c-15.52,0-27.33-0.87-36.29-1.97V531.08z M233.14,656.13c3.72,0.66,9.4,0.66,14.87,0.66c34.98,0.22,55.75-19.24,55.75-56.62
		c0.22-32.35-18.58-51.16-52.25-51.16c-8.53,0-14.43,0.66-18.36,1.53V656.13z"/>
	<path class="st0" d="M397.53,529.12v85.92c0,28.86,12.02,42.19,30.17,42.19c19.46,0,31.04-13.33,31.04-42.19v-85.92h26.89v84.17
		c0,45.47-23.39,65.58-58.81,65.58c-34.1,0-56.18-19.02-56.18-65.36v-84.38H397.53z"/>
	<path class="st0" d="M565.43,676.46l-47.66-147.34h29.29l20.11,67.11c5.68,18.58,10.71,35.63,14.43,53.56h0.44
		c3.94-17.49,9.4-35.42,15.08-53.34l21.42-67.33h28.64l-50.94,147.34H565.43z"/>
</g>
<g>
	<rect x="89.37" y="237.39" class="st0" width="26.23" height="74.97"/>
	<rect x="148.56" y="237.43" class="st0" width="26.23" height="74.97"/>
	<rect x="204.78" y="202.44" class="st0" width="24.4" height="135"/>
	<rect x="269.25" y="189.01" class="st0" width="14.19" height="167.19"/>
	<rect x="323.34" y="169.98" class="st0" width="25.91" height="207.53"/>
	<rect x="391.54" y="100.09" class="st0" width="23.79" height="339.34"/>
	<rect x="450.47" y="121.25" class="st0" width="26.9" height="297.08"/>
	<rect x="514.89" y="169.93" class="st0" width="35.51" height="207.59"/>
	<rect x="574.14" y="202.47" class="st0" width="20.38" height="135.01"/>
	<rect x="630.38" y="237.31" class="st0" width="18.53" height="72.72"/>
	<rect x="684.12" y="237.37" class="st0" width="24.31" height="72.72"/>
</g>
</svg>
