
<svg width="20" height="18" viewBox="0 0 20 18" fill="none" xmlns="http://www.w3.org/2000/svg">
<path d="M14.8624 16.918L16.428 14.3596C16.5979 14.0816 16.5136 13.736 16.2308 13.5409L13.2384 11.4954C12.9765 11.3164 12.6068 11.309 12.3374 11.4796L10.3501 12.7201C8.32614 11.2372 6.90909 9.13964 6.4346 6.82866L8.66495 5.95386C8.97048 5.83387 9.1472 5.55462 9.09969 5.26814L8.55668 1.99411C8.50135 1.68052 8.19893 1.44431 7.83681 1.43309L4.50351 1.3317C4.15729 1.32137 3.84421 1.5183 3.75282 1.8146C1.6815 8.52987 6.26331 15.4392 14.0057 17.2413C14.3437 17.32 14.6988 17.1863 14.8624 16.918Z" fill="white"/>
</svg>
